<svg width="275" height="275" viewBox="0 0 275 275" fill="none" xmlns="http://www.w3.org/2000/svg">
<circle cx="137.5" cy="64.5" r="12.5" fill="#57A2EB"/>
<circle cx="137.5" cy="174.5" r="17.5" fill="#F7F4F2"/>
<line x1="137" y1="157.029" x2="137" y2="77.0293" stroke="#F7F4F2"/>
<path d="M132.371 170.621C133.78 169.211 136.041 169.17 137.5 170.497C138.96 169.17 141.22 169.211 142.63 170.621C144.082 172.073 144.082 174.427 142.63 175.88L137.942 180.567C137.825 180.684 137.666 180.75 137.5 180.75C137.334 180.75 137.175 180.684 137.058 180.567L132.371 175.88C130.918 174.427 130.918 172.073 132.371 170.621Z" fill="#57A2EB"/>
<path d="M93.5965 222V209.04H98.6005C99.3265 209.04 99.9595 209.19 100.5 209.49C101.04 209.79 101.46 210.195 101.76 210.705C102.06 211.209 102.21 211.767 102.21 212.379C102.21 213.075 102.024 213.696 101.652 214.242C101.28 214.782 100.782 215.157 100.158 215.367L100.14 214.926C100.98 215.166 101.64 215.586 102.12 216.186C102.6 216.786 102.84 217.512 102.84 218.364C102.84 219.114 102.681 219.762 102.363 220.308C102.045 220.848 101.598 221.265 101.022 221.559C100.446 221.853 99.7765 222 99.0145 222H93.5965ZM94.9285 220.731H98.6905C99.2185 220.731 99.6925 220.638 100.113 220.452C100.533 220.26 100.863 219.99 101.103 219.642C101.349 219.294 101.472 218.874 101.472 218.382C101.472 217.902 101.361 217.47 101.139 217.086C100.917 216.702 100.614 216.396 100.23 216.168C99.8515 215.934 99.4195 215.817 98.9335 215.817H94.9285V220.731ZM94.9285 214.566H98.5915C99.0055 214.566 99.3835 214.473 99.7255 214.287C100.068 214.095 100.338 213.834 100.536 213.504C100.74 213.174 100.842 212.793 100.842 212.361C100.842 211.749 100.629 211.251 100.203 210.867C99.7825 210.483 99.2455 210.291 98.5915 210.291H94.9285V214.566ZM107.237 222.27C106.505 222.27 105.89 222.138 105.392 221.874C104.9 221.61 104.531 221.259 104.285 220.821C104.039 220.383 103.916 219.906 103.916 219.39C103.916 218.862 104.021 218.412 104.231 218.04C104.447 217.662 104.738 217.353 105.104 217.113C105.476 216.873 105.905 216.69 106.391 216.564C106.883 216.444 107.426 216.339 108.02 216.249C108.62 216.153 109.205 216.072 109.775 216.006C110.351 215.934 110.855 215.865 111.287 215.799L110.819 216.087C110.837 215.127 110.651 214.416 110.261 213.954C109.871 213.492 109.193 213.261 108.227 213.261C107.561 213.261 106.997 213.411 106.535 213.711C106.079 214.011 105.758 214.485 105.572 215.133L104.285 214.755C104.507 213.885 104.954 213.21 105.626 212.73C106.298 212.25 107.171 212.01 108.245 212.01C109.133 212.01 109.886 212.178 110.504 212.514C111.128 212.844 111.569 213.324 111.827 213.954C111.947 214.236 112.025 214.551 112.061 214.899C112.097 215.247 112.115 215.601 112.115 215.961V222H110.936V219.561L111.278 219.705C110.948 220.539 110.435 221.175 109.739 221.613C109.043 222.051 108.209 222.27 107.237 222.27ZM107.39 221.127C108.008 221.127 108.548 221.016 109.01 220.794C109.472 220.572 109.844 220.269 110.126 219.885C110.408 219.495 110.591 219.057 110.675 218.571C110.747 218.259 110.786 217.917 110.792 217.545C110.798 217.167 110.801 216.885 110.801 216.699L111.305 216.96C110.855 217.02 110.366 217.08 109.838 217.14C109.316 217.2 108.8 217.269 108.29 217.347C107.786 217.425 107.33 217.518 106.922 217.626C106.646 217.704 106.379 217.815 106.121 217.959C105.863 218.097 105.65 218.283 105.482 218.517C105.32 218.751 105.239 219.042 105.239 219.39C105.239 219.672 105.308 219.945 105.446 220.209C105.59 220.473 105.818 220.692 106.13 220.866C106.448 221.04 106.868 221.127 107.39 221.127ZM114.458 222V208.77H115.781V222H114.458ZM121.08 222.27C120.348 222.27 119.733 222.138 119.235 221.874C118.743 221.61 118.374 221.259 118.128 220.821C117.882 220.383 117.759 219.906 117.759 219.39C117.759 218.862 117.864 218.412 118.074 218.04C118.29 217.662 118.581 217.353 118.947 217.113C119.319 216.873 119.748 216.69 120.234 216.564C120.726 216.444 121.269 216.339 121.863 216.249C122.463 216.153 123.048 216.072 123.618 216.006C124.194 215.934 124.698 215.865 125.13 215.799L124.662 216.087C124.68 215.127 124.494 214.416 124.104 213.954C123.714 213.492 123.036 213.261 122.07 213.261C121.404 213.261 120.84 213.411 120.378 213.711C119.922 214.011 119.601 214.485 119.415 215.133L118.128 214.755C118.35 213.885 118.797 213.21 119.469 212.73C120.141 212.25 121.014 212.01 122.088 212.01C122.976 212.01 123.729 212.178 124.347 212.514C124.971 212.844 125.412 213.324 125.67 213.954C125.79 214.236 125.868 214.551 125.904 214.899C125.94 215.247 125.958 215.601 125.958 215.961V222H124.779V219.561L125.121 219.705C124.791 220.539 124.278 221.175 123.582 221.613C122.886 222.051 122.052 222.27 121.08 222.27ZM121.233 221.127C121.851 221.127 122.391 221.016 122.853 220.794C123.315 220.572 123.687 220.269 123.969 219.885C124.251 219.495 124.434 219.057 124.518 218.571C124.59 218.259 124.629 217.917 124.635 217.545C124.641 217.167 124.644 216.885 124.644 216.699L125.148 216.96C124.698 217.02 124.209 217.08 123.681 217.14C123.159 217.2 122.643 217.269 122.133 217.347C121.629 217.425 121.173 217.518 120.765 217.626C120.489 217.704 120.222 217.815 119.964 217.959C119.706 218.097 119.493 218.283 119.325 218.517C119.163 218.751 119.082 219.042 119.082 219.39C119.082 219.672 119.151 219.945 119.289 220.209C119.433 220.473 119.661 220.692 119.973 220.866C120.291 221.04 120.711 221.127 121.233 221.127ZM135.141 222V217.041C135.141 216.501 135.09 216.006 134.988 215.556C134.886 215.1 134.721 214.704 134.493 214.368C134.271 214.026 133.98 213.762 133.62 213.576C133.266 213.39 132.834 213.297 132.324 213.297C131.856 213.297 131.442 213.378 131.082 213.54C130.728 213.702 130.428 213.936 130.182 214.242C129.942 214.542 129.759 214.908 129.633 215.34C129.507 215.772 129.444 216.264 129.444 216.816L128.508 216.609C128.508 215.613 128.682 214.776 129.03 214.098C129.378 213.42 129.858 212.907 130.47 212.559C131.082 212.211 131.784 212.037 132.576 212.037C133.158 212.037 133.665 212.127 134.097 212.307C134.535 212.487 134.904 212.73 135.204 213.036C135.51 213.342 135.756 213.693 135.942 214.089C136.128 214.479 136.263 214.896 136.347 215.34C136.431 215.778 136.473 216.216 136.473 216.654V222H135.141ZM128.112 222V212.28H129.309V214.674H129.444V222H128.112ZM142.607 222.27C141.629 222.27 140.801 222.051 140.123 221.613C139.445 221.175 138.929 220.572 138.575 219.804C138.227 219.03 138.047 218.142 138.035 217.14C138.047 216.12 138.233 215.226 138.593 214.458C138.953 213.684 139.472 213.084 140.15 212.658C140.828 212.226 141.65 212.01 142.616 212.01C143.6 212.01 144.455 212.25 145.181 212.73C145.913 213.21 146.414 213.867 146.684 214.701L145.388 215.115C145.16 214.533 144.797 214.083 144.299 213.765C143.807 213.441 143.243 213.279 142.607 213.279C141.893 213.279 141.302 213.444 140.834 213.774C140.366 214.098 140.018 214.551 139.79 215.133C139.562 215.715 139.445 216.384 139.439 217.14C139.451 218.304 139.721 219.24 140.249 219.948C140.777 220.65 141.563 221.001 142.607 221.001C143.267 221.001 143.828 220.851 144.29 220.551C144.758 220.245 145.112 219.801 145.352 219.219L146.684 219.615C146.324 220.479 145.796 221.139 145.1 221.595C144.404 222.045 143.573 222.27 142.607 222.27ZM152.212 222.27C151.264 222.27 150.442 222.06 149.746 221.64C149.056 221.22 148.519 220.629 148.135 219.867C147.751 219.105 147.559 218.211 147.559 217.185C147.559 216.123 147.748 215.205 148.126 214.431C148.504 213.657 149.035 213.06 149.719 212.64C150.409 212.22 151.222 212.01 152.158 212.01C153.118 212.01 153.937 212.232 154.615 212.676C155.293 213.114 155.806 213.744 156.154 214.566C156.502 215.388 156.661 216.369 156.631 217.509H155.281V217.041C155.257 215.781 154.984 214.83 154.462 214.188C153.946 213.546 153.19 213.225 152.194 213.225C151.15 213.225 150.349 213.564 149.791 214.242C149.239 214.92 148.963 215.886 148.963 217.14C148.963 218.364 149.239 219.315 149.791 219.993C150.349 220.665 151.138 221.001 152.158 221.001C152.854 221.001 153.46 220.842 153.976 220.524C154.498 220.2 154.909 219.735 155.209 219.129L156.442 219.606C156.058 220.452 155.491 221.109 154.741 221.577C153.997 222.039 153.154 222.27 152.212 222.27ZM148.495 217.509V216.402H155.92V217.509H148.495Z" fill="white"/>
<path d="M161.871 222V209.04H166.875C167.001 209.04 167.142 209.046 167.298 209.058C167.46 209.064 167.622 209.082 167.784 209.112C168.462 209.214 169.035 209.451 169.503 209.823C169.977 210.189 170.334 210.651 170.574 211.209C170.82 211.767 170.943 212.385 170.943 213.063C170.943 213.735 170.82 214.35 170.574 214.908C170.328 215.466 169.968 215.931 169.494 216.303C169.026 216.669 168.456 216.903 167.784 217.005C167.622 217.029 167.46 217.047 167.298 217.059C167.142 217.071 167.001 217.077 166.875 217.077H163.194V222H161.871ZM163.194 215.817H166.839C166.947 215.817 167.073 215.811 167.217 215.799C167.361 215.787 167.502 215.766 167.64 215.736C168.084 215.64 168.447 215.457 168.729 215.187C169.017 214.917 169.23 214.596 169.368 214.224C169.512 213.852 169.584 213.465 169.584 213.063C169.584 212.661 169.512 212.274 169.368 211.902C169.23 211.524 169.017 211.2 168.729 210.93C168.447 210.66 168.084 210.477 167.64 210.381C167.502 210.351 167.361 210.333 167.217 210.327C167.073 210.315 166.947 210.309 166.839 210.309H163.194V215.817ZM177.055 222.27C176.149 222.27 175.333 222.12 174.607 221.82C173.887 221.514 173.29 221.082 172.816 220.524C172.348 219.966 172.042 219.303 171.898 218.535L173.248 218.31C173.464 219.15 173.92 219.81 174.616 220.29C175.312 220.764 176.143 221.001 177.109 221.001C177.745 221.001 178.315 220.902 178.819 220.704C179.323 220.5 179.719 220.212 180.007 219.84C180.295 219.468 180.439 219.027 180.439 218.517C180.439 218.181 180.379 217.896 180.259 217.662C180.139 217.422 179.98 217.224 179.782 217.068C179.584 216.912 179.368 216.783 179.134 216.681C178.9 216.573 178.672 216.486 178.45 216.42L175.165 215.439C174.769 215.325 174.403 215.181 174.067 215.007C173.731 214.827 173.437 214.614 173.185 214.368C172.939 214.116 172.747 213.822 172.609 213.486C172.471 213.15 172.402 212.766 172.402 212.334C172.402 211.602 172.594 210.969 172.978 210.435C173.362 209.901 173.887 209.49 174.553 209.202C175.219 208.914 175.978 208.773 176.83 208.779C177.694 208.779 178.465 208.932 179.143 209.238C179.827 209.544 180.391 209.982 180.835 210.552C181.279 211.116 181.573 211.785 181.717 212.559L180.331 212.811C180.241 212.247 180.034 211.758 179.71 211.344C179.386 210.93 178.972 210.612 178.468 210.39C177.97 210.162 177.421 210.045 176.821 210.039C176.239 210.039 175.72 210.138 175.264 210.336C174.814 210.528 174.457 210.792 174.193 211.128C173.929 211.464 173.797 211.848 173.797 212.28C173.797 212.718 173.917 213.069 174.157 213.333C174.403 213.597 174.703 213.804 175.057 213.954C175.417 214.104 175.765 214.227 176.101 214.323L178.639 215.07C178.903 215.142 179.212 215.247 179.566 215.385C179.926 215.517 180.274 215.709 180.61 215.961C180.952 216.207 181.234 216.531 181.456 216.933C181.678 217.335 181.789 217.845 181.789 218.463C181.789 219.063 181.669 219.6 181.429 220.074C181.195 220.548 180.862 220.947 180.43 221.271C180.004 221.595 179.503 221.841 178.927 222.009C178.357 222.183 177.733 222.27 177.055 222.27ZM186.009 222V216.573L181.662 209.04H183.192L186.675 215.061L190.14 209.04H191.67L187.341 216.573V222H186.009Z" fill="#57A2EB"/>
<circle cx="197.078" cy="85.0785" r="17.5" transform="rotate(58.365 197.078 85.0785)" fill="#F7F4F2"/>
<path fill-rule="evenodd" clip-rule="evenodd" d="M190 85.5C190 81.3579 193.358 78 197.5 78C201.642 78 205 81.3579 205 85.5C205 89.6421 201.642 93 197.5 93C193.358 93 190 89.6421 190 85.5ZM194.875 84.75C195.496 84.75 196 84.2463 196 83.625C196 83.0037 195.496 82.5 194.875 82.5C194.254 82.5 193.75 83.0037 193.75 83.625C193.75 84.2463 194.254 84.75 194.875 84.75ZM200.125 84.75C200.746 84.75 201.25 84.2463 201.25 83.625C201.25 83.0037 200.746 82.5 200.125 82.5C199.504 82.5 199 83.0037 199 83.625C199 84.2463 199.504 84.75 200.125 84.75ZM195.25 89.3971C195.934 89.7921 196.71 90 197.5 90C198.29 90 199.066 89.7921 199.75 89.3971C200.434 89.0022 201.002 88.4341 201.397 87.75L200.098 87C199.835 87.4561 199.456 87.8348 199 88.0981C198.544 88.3614 198.027 88.5 197.5 88.5C196.973 88.5 196.456 88.3614 196 88.0981C195.544 87.8348 195.165 87.4561 194.902 87L193.603 87.75C193.998 88.4341 194.566 89.0022 195.25 89.3971Z" fill="#57A2EB"/>
<circle cx="100.99" cy="137.99" r="12.5" transform="rotate(61.0288 100.99 137.99)" fill="#57A2EB"/>
<line x1="111.829" y1="132.044" x2="181.818" y2="93.2947" stroke="#F7F4F2"/>
</svg>
