<svg width="234" height="163" viewBox="0 0 234 163" fill="none" xmlns="http://www.w3.org/2000/svg">
<path d="M222.126 -31.462C199.228 -34.243 174.885 -39.0828 151.462 -37.7826C128.401 -36.5004 101.693 -19.8683 87.8956 0.953495C81.6112 10.4163 78.3786 21.7211 72.6721 31.527C68.049 39.4909 61.7826 46.0824 55.1009 52.0056C42.1708 63.4729 28.1933 72.701 18.0985 87.4911C-3.89709 119.726 -8.93548 176.575 20.5003 206.3C33.3943 219.32 51.2905 224.954 68.8256 226.562C93.5841 228.819 118.433 223.979 143.174 226.796C154.117 228.042 164.609 230.968 174.65 235.916C189.205 243.085 203.49 246.95 219.761 246.751C237.115 246.535 254.127 244.657 270.416 238.643C287.012 232.521 304.799 234.381 322.353 232.521C340.845 230.571 363.978 232.431 380.953 223.907C406.886 210.905 420.719 181.505 423.554 153.731C426.678 123.193 413.802 93.5769 390.073 73.9831C378.588 64.5203 369.053 55.2562 367.59 39.0756C366.235 24.141 362.443 15.1657 357.856 0.520088C345.883 -37.8187 302.759 -40.0399 270.018 -33.9722C250.334 -30.3243 240.944 -30.9202 224.438 -31.1911C222.072 -31.2272 224.438 -31.1911 222.126 -31.462Z" fill="#F5F5F5"/>
<path d="M34.2612 57.0082C40.2206 54.7147 46.1078 50.1459 49.7376 47.2023C60.1936 38.7147 69.7647 28.0961 70.9205 14.0283C70.9927 13.1796 71.0289 12.2947 70.7219 11.5001C70.3426 10.4888 69.4758 9.73035 68.5367 9.20664C64.311 6.859 58.8572 8.71906 55.1733 11.8613C51.4893 15.0035 48.943 19.2473 45.566 22.7146C38.5592 29.9201 28.3379 33.4415 21.6742 40.954C18.2973 44.7644 16.0941 50.8863 19.435 54.7689C23.3356 59.3378 28.8255 59.103 34.2612 57.0082Z" fill="#F5F5F5"/>
<path d="M238.669 264.186C253.501 231.766 259.1 197.655 257.571 160.799C256.579 136.792 248.358 114.854 232.871 101.607C183.192 59.1621 139.31 105.008 139.31 105.008C124.498 87.9029 99.9762 76.1878 62.7268 92.1394C50.8133 97.2511 39.4757 108.966 33.0821 122.113C26.1326 136.374 25.9341 153.698 25.9142 170.167C25.8944 187.412 31.3547 223.352 37.3511 239.085C41.2031 249.169 48.4902 266.454 51.7466 268.303L238.669 264.186Z" fill="#57A2EB"/>
<path d="M162.304 139.934C128.986 151.292 89.6315 142.659 66.4996 113.6C61.893 107.952 58.4183 101.826 55.9363 95.3813C58.1601 93.989 60.4237 92.8155 62.727 91.8608C99.9763 76.4462 124.498 87.7635 139.311 104.272C139.311 104.272 176.044 67.2372 220.342 92.2984C216.013 99.4985 211.685 106.699 205.827 113.143C194.232 126.33 178.506 134.047 162.304 139.934Z" fill="#F6A460"/>
<path d="M133.513 40.6246C129.602 25.4686 136.69 19.1436 143.084 17.0751C149.497 15.0065 156.744 18.0895 161.113 23.2608C163.575 26.1846 165.481 29.8841 168.956 31.4753C171.179 32.4897 173.701 32.4698 176.143 32.3703C184.264 32.0322 192.425 31.0178 200.487 32.0322C208.548 33.0466 216.768 36.4279 221.454 43.1307C225.485 48.8789 226.597 56.5364 231.581 61.4691C240.377 70.161 256.142 65.8648 266.09 73.1842C269.664 75.8097 272.186 79.8672 272.98 84.2429C274.688 93.7105 268.632 103.735 271.888 112.805C274.509 120.084 282.67 124.957 283.325 132.675C283.722 137.448 280.883 142.102 276.931 144.728C272.96 147.353 268.056 148.209 263.31 148.089C251.873 147.831 240.675 142.102 233.705 132.973C230.409 128.657 228.046 123.684 224.79 119.368C221.534 115.032 217.007 111.214 211.626 110.676C209.541 110.478 207.436 110.776 205.331 110.816C196.654 110.975 188.037 106.261 183.43 98.8421C178.725 91.264 177.692 88.3204 171.219 82.2341C159.743 71.4538 151.761 85.7943 138.179 73.7809C132.878 69.0869 139.192 53.732 135.578 47.6258C133.811 44.6225 140.284 42.8523 136.928 42.0567L133.513 40.6246Z" fill="#3F3C36"/>
<path d="M135.637 26.0058C133.711 18.7062 139.589 11.6652 146.796 10.8299C151.185 10.3127 155.652 11.8045 159.226 14.3106C163.237 17.0951 165.719 21.7692 169.948 24.1958C175.091 27.1395 181.167 25.8268 186.627 24.6931C191.214 23.7582 195.781 22.8433 200.486 23.4599C208.548 24.4942 216.153 29.0489 220.739 35.8114C226.478 44.3044 225.266 56.2184 234.837 62.066C244.268 67.834 255.944 66.2031 265.951 70.2208C273.178 73.1247 279.731 79.6685 278.758 88.0222C277.705 97.2113 269.227 105.207 275.223 114.396C277.785 118.334 281.557 121.437 283.483 125.793C285.171 129.632 284.814 133.848 282.649 137.428C277.11 146.578 265.454 146.16 256.936 141.904C255.884 141.387 256.817 139.815 257.85 140.332C266.348 144.589 280.128 144.39 282.57 132.834C284.337 124.44 275.045 119.428 272.146 112.566C269.108 105.366 273.695 98.7229 275.938 92.0598C277.368 87.8034 277.467 83.4674 274.985 79.569C272.483 75.5911 268.254 72.9457 263.886 71.454C255.189 68.4904 245.678 69.0672 237.18 65.3876C229.496 62.0461 226.041 56.0394 223.777 48.2625C222.526 43.9663 221.295 39.7297 218.615 36.07C216.053 32.5694 212.559 29.7649 208.687 27.8555C204.795 25.9461 200.447 24.9516 196.098 25.1107C191.531 25.2698 187.104 26.6224 182.616 27.3384C178.486 27.9948 174.158 28.2334 170.266 26.4632C166.057 24.5339 163.634 20.556 160.298 17.5526C156.208 13.873 150.231 11.3868 144.751 13.1371C139.629 14.768 135.915 20.2178 137.325 25.5682C137.683 26.6621 135.935 27.1395 135.637 26.0058Z" fill="#3F3C36"/>
<path d="M137.047 27.04C129.005 25.2301 120.785 29.4467 117.906 37.3032C115.245 44.5629 118.521 51.0271 121.738 57.4118C124.18 62.2848 126.523 67.5755 125.272 73.1247C124.041 78.6143 119.792 82.4928 114.53 84.0641C108.196 85.9536 97.1368 85.8343 97.1368 95.0433C97.1368 101.865 102.835 107.534 101.664 114.555C100.85 119.369 96.9382 121.517 92.431 121.914C89.8497 122.153 87.2486 121.934 84.6674 122.233C80.1998 122.75 77.9958 125.316 76.7449 129.552C75.5139 133.709 72.7936 141.824 66.6781 139C63.2629 137.428 63.938 131.74 67.8694 131.561C69.0409 131.501 69.0409 133.331 67.8694 133.391C65.3477 133.51 66.4001 135.778 67.0752 136.573C68.207 137.926 69.4579 137.886 70.9867 136.971C72.5554 136.036 73.3893 134.266 73.985 132.595C74.9182 129.95 75.2756 127.086 76.8243 124.679C79.2467 120.88 83.6349 120.363 87.7847 120.264C90.2071 120.204 92.7685 120.363 95.1115 119.627C98.9635 118.434 100.353 114.953 99.8967 111.174C99.2018 105.267 94.8931 100.175 95.3696 94.0687C95.7469 89.2156 99.5195 86.1923 103.828 84.6807C110.023 82.5127 117.37 83.2287 121.539 77.1623C128.966 66.3821 116.258 55.6416 115.146 44.9409C113.855 32.3904 125.431 22.5847 137.523 25.2897C138.675 25.5284 138.198 27.2986 137.047 27.04Z" fill="#3F3C36"/>
<path d="M199.93 107.673C210.315 107.156 218.872 115.55 218.892 125.952C218.892 132.436 215.715 138.841 219.27 144.987C220.957 147.91 223.995 150.635 227.49 150.854C229.595 150.993 232.295 150.019 232.871 147.692C233.685 144.41 228.741 141.605 227.788 145.663C227.51 146.797 225.762 146.319 226.04 145.185C227.391 139.497 235.273 141.705 234.797 147.234C234.221 153.997 225.643 153.4 221.672 150.397C218.932 148.348 216.966 145.325 216.132 142.003C215.14 138.025 216.132 134.007 216.728 130.049C218.356 119.309 211.585 108.926 199.97 109.503C198.759 109.543 198.759 107.733 199.93 107.673Z" fill="#3F3C36"/>
<path d="M150.688 48.9585C149.496 49.8336 148.285 49.5154 148.285 49.5154C148.206 48.7198 146.637 48.0038 146.637 48.0038C146.836 47.7253 147.769 46.8899 147.491 46.7109L150.688 48.9585Z" fill="#3F3C36"/>
<path d="M151.144 49.7342C150.251 50.3309 149.119 50.6292 148.047 50.3906C147.749 50.3309 147.471 50.0524 147.411 49.7541C147.312 49.2966 146.577 48.9784 146.18 48.7994C145.585 48.5209 145.684 47.785 146.001 47.3673C146.121 47.2281 146.24 47.0888 146.359 46.9496C146.518 46.7706 146.617 46.4723 146.617 46.7706C146.696 46.9894 146.796 47.2082 146.875 47.4071C146.855 47.3872 146.835 47.3673 146.835 47.3474C146.101 46.4524 147.372 45.1595 148.126 46.0546C148.96 47.0689 147.868 47.8645 147.272 48.6204C147.213 48.143 147.153 47.6656 147.094 47.1883C147.947 47.5861 148.96 48.2623 149.159 49.2369C148.94 49.0181 148.742 48.8193 148.523 48.6005C149 48.6999 149.715 48.4612 150.231 48.1231C151.204 47.5065 152.117 49.0977 151.144 49.7342Z" fill="#3F3C36"/>
<path d="M161.31 93.2133L144.194 26.7615C144.194 26.7615 114.51 45.8358 118.044 72.2296L131.943 68.3312C131.943 68.3312 129.342 81.4187 126.82 94.2874C124.458 106.341 134.902 117.002 146.974 114.873C147.133 114.853 147.292 114.814 147.451 114.794C157.458 112.984 163.851 103.079 161.31 93.2133Z" fill="#F6A460"/>
<path d="M160.774 54.4482C158.153 57.6306 153.467 58.0681 150.29 55.4427C147.113 52.8172 146.677 48.1232 149.298 44.9409C151.918 41.7585 156.604 41.3209 159.781 43.9464C162.938 46.5718 163.395 51.2857 160.774 54.4482Z" fill="#F6A460"/>
<path d="M151.522 50.6096C153.845 49.1775 156.188 47.7653 158.55 46.3929C159.563 45.7962 160.476 47.3675 159.464 47.9642C157.101 49.3366 154.778 50.7687 152.435 52.1809C151.442 52.7974 150.529 51.2261 151.522 50.6096Z" fill="#3F3C36"/>
<path d="M131.963 68.3311L126.86 94.8641L142.01 64.751L131.963 68.3311Z" fill="#3F3C36"/>
<path d="M126.027 53.9308C126.027 53.9308 130.753 55.0247 137.266 53.2943C138.517 52.9562 139.688 54.0501 139.43 55.3032C138.854 57.9088 136.174 61.6878 125.809 63.1L126.027 53.9308Z" fill="white"/>
<path d="M126.305 52.9165C129.422 53.5927 132.897 53.195 135.955 52.5386C138.635 51.9618 141.217 53.0756 140.244 56.258C138.556 61.847 130.931 63.4183 126.067 64.1343C124.736 64.3332 124.161 62.2846 125.511 62.0857C129.045 61.5686 136.968 60.4348 138.099 55.9596C138.596 54.0303 135.836 54.7464 134.605 54.9453C133.155 55.1839 131.686 55.3232 130.217 55.343C128.727 55.3629 127.199 55.2834 125.749 54.9652C124.399 54.6668 124.975 52.6181 126.305 52.9165Z" fill="#ED7E1C"/>
<path d="M131.626 39.6102C127.972 42.6932 124.379 46.1938 121.4 49.9132C121.182 49.396 120.963 48.8789 120.765 48.3618C122.651 48.5209 124.557 48.68 126.463 48.8391C127.615 48.9386 127.635 50.7485 126.463 50.669C124.557 50.5099 122.671 50.3507 120.765 50.1916C119.931 50.1121 119.613 49.2568 120.129 48.6402C123.108 44.9009 126.702 41.4202 130.355 38.3373C131.229 37.5616 132.519 38.8544 131.626 39.6102Z" fill="#3F3C36"/>
<path d="M212.658 160.779C213.015 174.881 212.281 188.983 210.355 202.965C208.647 215.396 205.768 227.828 198.997 238.548C198.382 239.543 196.793 238.628 197.429 237.633C204.12 227.052 206.92 214.76 208.607 202.488C210.494 188.684 211.209 174.722 210.851 160.779C210.811 159.606 212.638 159.606 212.658 160.779Z" fill="#3F3C36"/>
<path d="M218.575 161.893C217.721 165.692 216.113 169.173 213.73 172.255C213.035 173.17 211.447 172.275 212.162 171.341C214.445 168.377 215.994 165.055 216.808 161.415C217.066 160.262 218.833 160.739 218.575 161.893Z" fill="#3F3C36"/>
<path d="M78.0155 159.487C79.5841 183.911 81.3116 208.714 90.2069 231.766C90.6239 232.86 88.8766 233.337 88.4596 232.243C79.5047 209.052 77.7772 184.05 76.2086 159.487C76.1292 158.333 77.9361 158.333 78.0155 159.487Z" fill="#3F3C36"/>
<path d="M76.606 170.843C72.8731 167.84 70.4705 163.643 69.7359 158.889C69.5572 157.736 71.3045 157.258 71.4832 158.412C72.1781 162.887 74.3623 166.726 77.8767 169.55C78.81 170.286 77.5193 171.559 76.606 170.843Z" fill="#3F3C36"/>
<path d="M142.507 54.9653C140.998 56.6559 138.894 57.5908 136.63 57.6106C135.458 57.6305 135.458 55.8007 136.63 55.8007C138.437 55.7808 140.025 55.0449 141.217 53.6923C142.011 52.8172 143.282 54.0901 142.507 54.9653Z" fill="#3F3C36"/>
<path d="M143.143 43.071C140.78 41.5992 137.961 41.3804 135.419 42.5738C134.367 43.071 133.453 41.4997 134.506 41.0025C137.623 39.5306 141.118 39.6699 144.056 41.4997C145.049 42.1163 144.136 43.6876 143.143 43.071Z" fill="#3F3C36"/>
<path d="M141.555 42.1759C141.614 42.8322 141.555 43.4886 141.336 44.1052C141.158 44.6223 140.522 45.0002 140.006 44.6422C139.708 44.4433 139.43 44.2842 139.073 44.2444C138.755 44.2046 138.437 44.3041 138.12 44.3041C137.167 44.324 136.988 43.5284 136.908 42.7726C136.829 42.0167 136.829 41.2013 137.722 40.9228C138.477 40.704 139.47 41.1416 140.185 41.3405C140.82 41.5195 141.098 42.3947 140.582 42.8521C139.887 43.4687 138.874 43.5085 138.199 42.8123C137.385 41.9571 138.676 40.6841 139.49 41.5195C139.45 41.4797 139.331 41.5394 139.291 41.5593C139.43 42.0565 139.549 42.5737 139.688 43.0709C139.39 42.9913 139.093 42.9118 138.815 42.8322C138.676 42.7925 138.517 42.7527 138.378 42.7129C138.1 42.693 138.08 42.6532 138.318 42.6134C138.417 42.514 138.537 42.3947 138.636 42.2952C138.676 42.1162 138.676 42.1162 138.676 42.2554C138.676 42.3549 138.695 42.4543 138.695 42.5538C138.695 42.6333 138.815 43.1107 138.676 42.8521C138.576 42.7527 138.457 42.6333 138.358 42.5339C138.398 42.5538 138.417 42.5737 138.457 42.5936C138.298 42.5538 138.159 42.514 138 42.4742C138.437 42.4941 138.954 42.3946 139.45 42.4742C139.966 42.5538 140.463 42.7726 140.899 43.0709C140.463 43.2499 140.006 43.4289 139.569 43.6079C139.728 43.1107 139.788 42.6731 139.728 42.156C139.668 41.6587 140.185 41.241 140.641 41.241C141.177 41.2609 141.495 41.6786 141.555 42.1759Z" fill="#3F3C36"/>
<path d="M141.158 45.5374C139.648 45.2987 138.139 45.3584 136.67 45.7164C135.538 45.9749 135.042 44.2246 136.194 43.9661C138.02 43.5484 139.807 43.4887 141.654 43.7871C142.786 43.986 142.309 45.7363 141.158 45.5374Z" fill="#3F3C36"/>
<path d="M142.924 33.4646C141.554 32.9275 140.164 32.7883 138.735 33.1264C137.603 33.385 137.107 31.6347 138.258 31.3761C139.986 30.9783 141.753 31.0579 143.401 31.7143C144.493 32.132 144.016 33.8823 142.924 33.4646Z" fill="#3F3C36"/>
<path d="M163.178 101.567C161.947 98.0465 160.735 94.526 159.504 91.0254C159.127 89.9115 160.874 89.4342 161.252 90.548C162.483 94.0685 163.694 97.589 164.925 101.09C165.322 102.184 163.555 102.661 163.178 101.567Z" fill="#3F3C36"/>
<path d="M110.762 33.0211L106.544 35.3304C103.975 37.2392 104.328 37.8754 103.739 41.0331L102.255 50.4118C102.208 50.7182 101.736 50.7182 101.689 50.4118L100.228 41.1038C99.6391 37.9697 99.7098 37.2863 97.1648 35.354L93.1588 33.0447C93.0174 32.9268 93.0174 32.6912 93.1588 32.5969L97.6832 30.429C100.205 28.4967 100.063 27.2242 100.629 24.1136L101.689 15.2298C101.736 14.9234 102.208 14.9234 102.255 15.2298L103.48 24.3964C104.046 27.507 104.352 28.803 106.873 30.7118L110.785 32.5498C110.927 32.6912 110.927 32.9033 110.762 33.0211Z" fill="#FFBD1A"/>
<path d="M86.7324 53.0509L82.5143 55.3602C79.9458 57.269 80.2993 57.9052 79.7101 61.0629L78.202 70.4181C78.1549 70.7244 77.6836 70.7244 77.6365 70.4181L76.1754 61.11C75.5863 57.9759 75.657 57.2925 73.112 55.3602L69.106 53.0509C68.9647 52.9331 68.9647 52.6974 69.106 52.6031L73.6305 50.4352C76.1519 48.5029 76.0105 47.2304 76.576 44.1199L77.6129 35.2595C77.66 34.9532 78.1313 34.9532 78.1784 35.2595L79.4038 44.4262C79.9694 47.5367 80.2993 48.8328 82.7971 50.7415L86.7089 52.5796C86.8738 52.721 86.8738 52.9566 86.7324 53.0509Z" fill="#FFBD1A"/>
</svg>
