<svg width="48" height="48" viewBox="0 0 48 48" fill="none" xmlns="http://www.w3.org/2000/svg">
<rect width="48" height="48" rx="24" fill="#FF9800"/>
<path fill-rule="evenodd" clip-rule="evenodd" d="M16.695 28.4798C18.7907 26.8716 21.3585 26 24.0001 26C26.6417 26 29.2095 26.8717 31.3052 28.4798C33.401 30.0879 34.9075 32.3426 35.5912 34.8942C35.8771 35.9611 35.2439 37.0578 34.177 37.3437C33.1101 37.6295 32.0134 36.9964 31.7275 35.9295C31.2717 34.2284 30.2673 32.7252 28.8702 31.6532C27.473 30.5811 25.7612 30 24.0001 30C22.239 30 20.5272 30.5811 19.13 31.6532C17.7328 32.7252 16.7285 34.2284 16.2727 35.9294C15.9868 36.9964 14.8901 37.6295 13.8232 37.3437C12.7563 37.0578 12.1231 35.9611 12.409 34.8942C13.0927 32.3426 14.5992 30.0879 16.695 28.4798Z" fill="#663600"/>
<path fill-rule="evenodd" clip-rule="evenodd" d="M12 14C13.1046 14 14 14.8954 14 16V22C14 23.1046 13.1046 24 12 24C10.8954 24 10 23.1046 10 22V16C10 14.8954 10.8954 14 12 14Z" fill="#663600"/>
<path fill-rule="evenodd" clip-rule="evenodd" d="M36 14C37.1046 14 38 14.8954 38 16V22C38 23.1046 37.1046 24 36 24C34.8954 24 34 23.1046 34 22V16C34 14.8954 34.8954 14 36 14Z" fill="#663600"/>
</svg>
