<svg width="48" height="48" viewBox="0 0 48 48" fill="none" xmlns="http://www.w3.org/2000/svg">
<rect width="48" height="48" rx="24" fill="#F44336"/>
<path fill-rule="evenodd" clip-rule="evenodd" d="M30.5858 12.5858C31.3668 11.8047 32.6332 11.8047 33.4142 12.5858L39.4142 18.5858C40.1953 19.3668 40.1953 20.6332 39.4142 21.4142C38.6332 22.1953 37.3668 22.1953 36.5858 21.4142L30.5858 15.4142C29.8047 14.6332 29.8047 13.3668 30.5858 12.5858Z" fill="#272826"/>
<path fill-rule="evenodd" clip-rule="evenodd" d="M39.4142 12.5858C40.1953 13.3668 40.1953 14.6332 39.4142 15.4142L33.4142 21.4142C32.6332 22.1953 31.3668 22.1953 30.5858 21.4142C29.8047 20.6332 29.8047 19.3668 30.5858 18.5858L36.5858 12.5858C37.3668 11.8047 38.6332 11.8047 39.4142 12.5858Z" fill="#272826"/>
<path fill-rule="evenodd" clip-rule="evenodd" d="M8.58579 12.5858C9.36683 11.8047 10.6332 11.8047 11.4142 12.5858L17.4142 18.5858C18.1953 19.3668 18.1953 20.6332 17.4142 21.4142C16.6332 22.1953 15.3668 22.1953 14.5858 21.4142L8.58579 15.4142C7.80474 14.6332 7.80474 13.3668 8.58579 12.5858Z" fill="#272826"/>
<path fill-rule="evenodd" clip-rule="evenodd" d="M17.4142 12.5858C18.1953 13.3668 18.1953 14.6332 17.4142 15.4142L11.4142 21.4142C10.6332 22.1953 9.36684 22.1953 8.58579 21.4142C7.80474 20.6332 7.80474 19.3668 8.58579 18.5858L14.5858 12.5858C15.3668 11.8047 16.6332 11.8047 17.4142 12.5858Z" fill="#272826"/>
<path fill-rule="evenodd" clip-rule="evenodd" d="M16.695 28.4798C18.7907 26.8716 21.3585 26 24.0001 26C26.6417 26 29.2095 26.8717 31.3052 28.4798C33.401 30.0879 34.9075 32.3426 35.5912 34.8942C35.8771 35.9611 35.2439 37.0578 34.177 37.3437C33.1101 37.6295 32.0134 36.9964 31.7275 35.9295C31.2717 34.2284 30.2673 32.7252 28.8702 31.6532C27.473 30.5811 25.7612 30 24.0001 30C22.239 30 20.5272 30.5811 19.13 31.6532C17.7328 32.7252 16.7285 34.2284 16.2727 35.9294C15.9868 36.9964 14.8901 37.6295 13.8232 37.3437C12.7563 37.0578 12.1231 35.9611 12.409 34.8942C13.0927 32.3426 14.5992 30.0879 16.695 28.4798Z" fill="#272826"/>
</svg>
