<svg width="488" height="610" viewBox="0 0 488 610" fill="none" xmlns="http://www.w3.org/2000/svg">
<path d="M539.055 12.9957C483.485 7.46777 424.409 -2.15226 367.568 0.432222C311.604 2.98081 246.787 36.0407 213.305 77.4284C198.053 96.2377 190.209 118.708 176.36 138.2C165.141 154.03 149.934 167.132 133.719 178.905C102.34 201.699 68.4194 220.042 43.9213 249.44C-9.45743 313.514 -21.6846 426.514 49.75 485.598C81.041 511.479 124.471 522.678 167.025 525.873C227.109 530.36 287.412 520.74 347.453 526.339C374.01 528.816 399.473 534.631 423.839 544.467C459.162 558.717 493.828 566.399 533.314 566.004C575.43 565.573 616.713 561.84 656.243 549.887C696.518 537.718 739.685 541.415 782.283 537.718C827.16 533.841 883.3 537.539 924.495 520.596C987.427 494.751 1021 436.313 1027.88 381.105C1035.46 320.406 1004.21 261.537 946.627 222.59C918.754 203.781 895.614 185.367 892.065 153.204C888.778 123.518 879.574 105.678 868.443 76.5669C839.387 0.360428 734.733 -4.05473 655.279 8.0062C607.509 15.2571 584.721 14.0726 544.665 13.5341C538.924 13.4623 544.665 13.5341 539.055 12.9957Z" fill="#F5F5F5"/>
<path d="M83.1449 188.849C97.6071 184.29 111.894 175.208 120.703 169.357C146.077 152.486 169.305 131.38 172.109 103.417C172.285 101.73 172.372 99.9711 171.627 98.3917C170.707 96.3815 168.603 94.8739 166.325 93.8329C156.07 89.1665 142.834 92.8637 133.894 99.1096C124.954 105.355 118.775 113.791 110.579 120.683C93.5752 135.005 68.7703 142.005 52.5989 156.937C44.4037 164.511 39.057 176.68 47.1646 184.398C56.6308 193.479 69.9536 193.013 83.1449 188.849Z" fill="#F5F5F5"/>
<path d="M655.5 511.343C691.495 436.704 692.894 446.457 689.184 361.607C686.775 306.337 666.826 255.829 629.241 225.332C508.68 127.614 402.189 233.163 402.189 233.163C366.243 193.782 306.733 166.811 216.337 203.536C187.425 215.304 159.911 242.275 144.395 272.543C127.53 305.375 127.048 345.259 127 383.174C126.952 422.875 140.203 505.619 154.755 541.84C164.103 565.056 181.787 604.849 189.69 609.107L655.5 511.343Z" fill="#ED7E1C"/>
<path d="M455.877 314.308C375.021 340.454 279.517 320.581 223.381 253.68C212.202 240.676 203.769 226.572 197.746 211.736C203.143 208.53 208.636 205.829 214.225 203.631C304.622 168.143 364.131 194.198 400.078 232.204C400.078 232.204 489.222 146.941 596.724 204.638C586.22 221.214 575.715 237.791 561.501 252.627C533.36 282.987 495.197 300.753 455.877 314.308Z" fill="#F6A460"/>
<path d="M386.009 85.6729C376.516 50.7801 393.718 36.2186 409.234 31.4563C424.798 26.694 442.386 33.7917 452.987 45.6973C458.962 52.4286 463.588 60.9457 472.02 64.609C477.417 66.9444 483.537 66.8986 489.464 66.6696C509.172 65.8912 528.976 63.5558 548.539 65.8912C568.103 68.2265 588.052 76.011 599.424 91.4426C609.205 104.676 611.904 122.306 623.999 133.662C645.345 153.673 683.604 143.782 707.745 160.633C716.419 166.677 722.538 176.019 724.466 186.093C728.61 207.889 713.913 230.968 721.816 251.849C728.176 268.608 747.981 279.827 749.571 297.594C750.534 308.584 743.644 319.299 734.055 325.343C724.418 331.388 712.516 333.357 700.999 333.082C673.244 332.487 646.068 319.299 629.154 298.281C621.156 288.344 615.421 276.896 607.519 266.96C599.616 256.977 588.63 248.185 575.572 246.949C570.512 246.491 565.405 247.178 560.297 247.269C539.24 247.636 518.327 236.783 507.148 219.703C495.728 202.257 493.222 195.48 477.514 181.468C449.662 156.649 430.292 189.664 397.332 162.007C384.467 151.2 399.79 115.849 391.02 101.791C386.732 94.8769 402.44 90.8015 394.297 88.9699L386.009 85.6729Z" fill="#3F3C36"/>
<path d="M391.164 52.0168C386.49 35.2115 400.753 19.0015 418.245 17.0783C428.894 15.8877 439.736 19.322 448.409 25.0917C458.142 31.5024 464.166 42.2633 474.429 47.8498C486.909 54.6269 501.654 51.6047 514.905 48.9946C526.036 46.8424 537.119 44.736 548.539 46.1556C568.103 48.5367 586.558 59.0228 597.689 74.5918C611.614 94.1445 608.675 121.573 631.901 135.036C654.789 148.315 683.122 144.56 707.408 153.81C724.947 160.496 740.849 175.561 738.488 194.793C735.934 215.949 715.358 234.357 729.91 255.512C736.126 264.579 745.282 271.722 749.956 281.75C754.052 290.588 753.184 300.296 747.932 308.538C734.488 329.602 706.203 328.64 685.531 318.841C682.977 317.651 685.242 314.033 687.748 315.224C708.371 325.023 741.812 324.565 747.739 297.96C752.028 278.637 729.477 267.097 722.442 251.299C715.069 234.723 726.2 219.429 731.645 204.089C735.115 194.29 735.355 184.307 729.332 175.332C723.261 166.174 712.997 160.084 702.396 156.649C681.291 149.826 658.21 151.154 637.586 142.683C618.939 134.99 610.554 121.161 605.061 103.257C602.025 93.3661 599.038 83.6126 592.533 75.1871C586.317 67.1279 577.836 60.6713 568.44 56.2754C558.995 51.8794 548.443 49.5899 537.89 49.9562C526.807 50.3225 516.062 53.4363 505.172 55.0848C495.149 56.5959 484.645 57.1454 475.2 53.07C464.985 48.6283 459.106 39.4701 451.011 32.5556C441.085 24.0843 426.581 18.3604 413.281 22.39C400.85 26.1449 391.839 38.6916 395.26 51.0094C396.127 53.5279 391.887 54.6269 391.164 52.0168Z" fill="#3F3C36"/>
<path d="M394.585 54.398C375.069 50.231 355.12 59.9387 348.133 78.0261C341.677 94.7399 349.627 109.622 357.433 124.321C363.36 135.54 369.046 147.72 366.01 160.496C363.023 173.134 352.711 182.063 339.942 185.681C324.571 190.031 297.731 189.756 297.731 210.957C297.731 226.664 311.56 239.714 308.717 255.878C306.742 266.96 297.249 271.905 286.311 272.821C280.047 273.371 273.735 272.867 267.47 273.554C256.629 274.744 251.28 280.651 248.244 290.405C245.257 299.975 238.655 318.658 223.814 312.156C215.526 308.538 217.164 295.442 226.705 295.03C229.548 294.892 229.548 299.105 226.705 299.243C220.586 299.517 223.139 304.737 224.778 306.569C227.524 309.683 230.56 309.591 234.27 307.485C238.077 305.333 240.101 301.257 241.546 297.411C243.811 291.321 244.678 284.727 248.437 279.186C254.316 270.44 264.965 269.249 275.036 269.02C280.914 268.883 287.13 269.249 292.816 267.555C302.164 264.808 305.537 256.794 304.429 248.094C302.742 234.494 292.286 222.772 293.443 208.714C294.358 197.541 303.513 190.58 313.97 187.1C329.004 182.109 346.832 183.758 356.951 169.791C374.973 144.973 344.134 120.245 341.436 95.6099C338.304 66.7158 366.396 44.1408 395.741 50.3684C398.536 50.9179 397.379 54.9933 394.585 54.398Z" fill="#3F3C36"/>
<path d="M427.688 104.859C424.797 106.874 421.857 106.142 421.857 106.142C421.665 104.31 417.858 102.661 417.858 102.661C418.34 102.02 420.604 100.097 419.93 99.6851L427.688 104.859Z" fill="#3F3C36"/>
<path d="M428.795 106.645C426.627 108.019 423.88 108.706 421.278 108.156C420.556 108.019 419.881 107.378 419.736 106.691C419.496 105.638 417.713 104.905 416.749 104.493C415.303 103.852 415.544 102.158 416.315 101.196C416.604 100.876 416.893 100.555 417.183 100.234C417.568 99.8223 417.809 99.1355 417.809 99.8223C418.002 100.326 418.243 100.83 418.435 101.288C418.387 101.242 418.339 101.196 418.339 101.15C416.556 99.0897 419.64 96.1132 421.471 98.1738C423.495 100.509 420.845 102.341 419.399 104.081C419.255 102.982 419.11 101.883 418.966 100.784C421.038 101.7 423.495 103.257 423.977 105.5C423.447 104.997 422.965 104.539 422.435 104.035C423.591 104.264 425.326 103.715 426.579 102.936C428.94 101.517 431.157 105.18 428.795 106.645Z" fill="#3F3C36"/>
<path d="M453.466 206.745L411.929 53.7568C411.929 53.7568 339.892 97.6704 348.469 158.435L382.199 149.46C382.199 149.46 375.886 179.591 369.767 209.217C364.033 236.967 389.378 261.511 418.675 256.611C419.061 256.565 419.446 256.474 419.832 256.428C444.117 252.261 459.633 229.457 453.466 206.745Z" fill="#F6A460"/>
<path d="M452.166 117.498C445.805 124.825 434.433 125.832 426.723 119.788C419.014 113.743 417.954 102.936 424.314 95.6099C430.675 88.2834 442.047 87.276 449.756 93.3204C457.418 99.3648 458.526 110.217 452.166 117.498Z" fill="#F6A460"/>
<path d="M429.711 108.66C435.349 105.363 441.035 102.112 446.769 98.9525C449.227 97.5787 451.443 101.196 448.986 102.57C443.252 105.73 437.614 109.027 431.928 112.278C429.519 113.697 427.302 110.08 429.711 108.66Z" fill="#3F3C36"/>
<path d="M382.247 149.46L369.863 210.545L406.629 141.218L382.247 149.46Z" fill="#3F3C36"/>
<path d="M367.842 116.307C367.842 116.307 379.31 118.825 395.115 114.842C398.151 114.063 400.994 116.582 400.367 119.466C398.97 125.465 392.465 134.165 367.312 137.417L367.842 116.307Z" fill="white"/>
<path d="M368.516 113.972C376.081 115.529 384.514 114.613 391.934 113.102C398.439 111.774 404.703 114.338 402.342 121.665C398.247 134.532 379.743 138.149 367.938 139.798C364.709 140.256 363.312 135.539 366.588 135.081C375.166 133.891 394.392 131.281 397.138 120.978C398.343 116.536 391.645 118.185 388.658 118.642C385.14 119.192 381.574 119.512 378.009 119.558C374.395 119.604 370.684 119.421 367.167 118.688C363.89 118.001 365.287 113.285 368.516 113.972Z" fill="#ED7E1C"/>
<path d="M381.429 83.3375C372.562 90.4351 363.841 98.4943 356.613 107.057C356.083 105.867 355.553 104.676 355.071 103.486C359.649 103.852 364.274 104.218 368.9 104.585C371.695 104.813 371.743 108.98 368.9 108.797C364.274 108.431 359.697 108.065 355.071 107.698C353.047 107.515 352.276 105.546 353.529 104.127C360.757 95.5179 369.478 87.5045 378.345 80.4068C380.465 78.621 383.597 81.5974 381.429 83.3375Z" fill="#3F3C36"/>
<path d="M251.327 359.321C255.134 415.552 259.326 472.654 280.914 525.725C281.925 528.244 277.685 529.343 276.673 526.824C254.941 473.432 250.749 415.873 246.943 359.321C246.75 356.665 251.135 356.665 251.327 359.321Z" fill="#3F3C36"/>
<path d="M247.907 385.466C238.848 378.552 233.017 368.89 231.234 357.946C230.801 355.29 235.041 354.191 235.475 356.847C237.161 367.15 242.462 375.987 250.991 382.49C253.255 384.184 250.123 387.115 247.907 385.466Z" fill="#3F3C36"/>
<path d="M407.836 118.689C404.174 122.581 399.066 124.733 393.573 124.779C390.73 124.825 390.73 120.612 393.573 120.612C397.958 120.566 401.813 118.872 404.704 115.758C406.631 113.743 409.715 116.674 407.836 118.689Z" fill="#3F3C36"/>
<path d="M409.378 91.3049C403.644 87.9164 396.802 87.4127 390.634 90.1601C388.08 91.3049 385.864 87.6874 388.418 86.5426C395.983 83.1541 404.463 83.4746 411.595 87.6874C414.004 89.1069 411.788 92.7244 409.378 91.3049Z" fill="#3F3C36"/>
<path d="M405.524 89.2439C405.669 90.755 405.524 92.2661 404.994 93.6856C404.56 94.8762 403.018 95.7462 401.766 94.922C401.043 94.4641 400.368 94.0977 399.501 94.0061C398.73 93.9146 397.959 94.1435 397.188 94.1435C394.875 94.1893 394.441 92.3577 394.249 90.6176C394.056 88.8775 394.056 87.0001 396.224 86.359C398.055 85.8553 400.465 86.8628 402.199 87.3207C403.741 87.7328 404.416 89.7476 403.163 90.8008C401.476 92.2203 399.019 92.3119 397.381 90.7092C395.405 88.7402 398.537 85.8095 400.513 87.7328C400.416 87.6412 400.127 87.7786 400.031 87.8244C400.368 88.9691 400.657 90.1597 400.995 91.3045C400.272 91.1213 399.549 90.9382 398.874 90.755C398.537 90.6634 398.152 90.5718 397.814 90.4802C397.14 90.4344 397.092 90.3429 397.67 90.2513C397.911 90.0223 398.2 89.7476 398.441 89.5186C398.537 89.1065 398.537 89.1065 398.537 89.427C398.537 89.656 398.585 89.8849 398.585 90.1139C398.585 90.2971 398.874 91.3961 398.537 90.8008C398.296 90.5718 398.007 90.2971 397.766 90.0681C397.863 90.1139 397.911 90.1597 398.007 90.2055C397.622 90.1139 397.284 90.0223 396.899 89.9307C397.959 89.9765 399.212 89.7476 400.416 89.9307C401.669 90.1139 402.874 90.6176 403.934 91.3045C402.874 91.7166 401.766 92.1287 400.706 92.5408C401.091 91.396 401.236 90.3887 401.091 89.1981C400.946 88.0533 402.199 87.0917 403.308 87.0917C404.609 87.1375 405.38 88.0991 405.524 89.2439Z" fill="#3F3C36"/>
<path d="M404.56 96.9831C400.898 96.4336 397.236 96.571 393.67 97.3952C390.924 97.9905 389.719 93.9609 392.514 93.3656C396.947 92.404 401.284 92.2666 405.765 92.9535C408.511 93.4114 407.355 97.441 404.56 96.9831Z" fill="#3F3C36"/>
<path d="M408.848 69.1888C405.523 67.9525 402.15 67.6319 398.681 68.4104C395.934 69.0057 394.73 64.9761 397.524 64.3808C401.717 63.465 406.005 63.6481 410.005 65.1592C412.655 66.1209 411.498 70.1505 408.848 69.1888Z" fill="#3F3C36"/>
<path d="M457.998 225.977C455.011 217.872 452.072 209.767 449.084 201.708C448.169 199.143 452.409 198.044 453.324 200.609C456.312 208.714 459.251 216.819 462.239 224.878C463.202 227.396 458.914 228.495 457.998 225.977Z" fill="#3F3C36"/>
<path d="M295.347 100.821L285.11 105.411C278.877 109.205 279.735 110.47 278.305 116.746L274.702 135.389C274.588 135.997 273.444 135.997 273.33 135.389L269.784 116.887C268.355 110.657 268.526 109.299 262.35 105.458L252.628 100.868C252.285 100.633 252.285 100.165 252.628 99.9776L263.608 95.6684C269.727 91.8275 269.384 89.2982 270.757 83.1153L273.33 65.4567C273.444 64.8478 274.588 64.8478 274.702 65.4567L277.676 83.6774C279.049 89.8602 279.792 92.4364 285.911 96.2305L295.404 99.884C295.747 100.165 295.747 100.587 295.347 100.821Z" fill="#FFBD1A"/>
<path d="M237.033 140.634L226.797 145.224C220.563 149.018 221.421 150.283 219.991 156.56L216.331 175.155C216.217 175.764 215.073 175.764 214.959 175.155L211.413 156.653C209.984 150.424 210.155 149.065 203.979 145.224L194.257 140.634C193.914 140.4 193.914 139.931 194.257 139.744L205.237 135.435C211.356 131.594 211.013 129.065 212.385 122.882L214.902 105.27C215.016 104.661 216.16 104.661 216.274 105.27L219.248 123.491C220.62 129.673 221.421 132.25 227.483 136.044L236.976 139.697C237.376 139.978 237.376 140.447 237.033 140.634Z" fill="#FFBD1A"/>
</svg>
